# Tiled2Unity generated file. Do not modify by hand.
# Wavefront file for 'room_mesh_0002.obj'

# Vertices (Count = 48)
v -80 -32 0
v -96 -32 0
v -96 -16 0
v -80 -16 0
v -48 -32 0
v -64 -32 0
v -64 -16 0
v -48 -16 0
v -32 -32 0
v -48 -32 0
v -48 -16 0
v -32 -16 0
v -144 -48 0
v -160 -48 0
v -160 -32 0
v -144 -32 0
v -128 -48 0
v -144 -48 0
v -144 -32 0
v -128 -32 0
v -112 -48 0
v -128 -48 0
v -128 -32 0
v -112 -32 0
v -96 -48 0
v -112 -48 0
v -112 -32 0
v -96 -32 0
v -48 -48 0
v -64 -48 0
v -64 -32 0
v -48 -32 0
v -32 -48 0
v -48 -48 0
v -48 -32 0
v -32 -32 0
v -144 -80 0
v -160 -80 0
v -160 -64 0
v -144 -64 0
v -128 -80 0
v -144 -80 0
v -144 -64 0
v -128 -64 0
v -112 -80 0
v -128 -80 0
v -128 -64 0
v -112 -64 0

# Texture cooridinates (Count = 44)
vt 0.5092975 0.6463878
vt 0.5258265 0.6463878
vt 0.5258265 0.6768061
vt 0.5092975 0.6768061
vt 0.5092975 0.8726236
vt 0.5258265 0.8726236
vt 0.5258265 0.9030418
vt 0.5092975 0.9030418
vt 0.4917355 0.8726236
vt 0.5082645 0.8726236
vt 0.5082645 0.9030418
vt 0.4917355 0.9030418
vt 0.5092975 0.9695817
vt 0.5258265 0.9695817
vt 0.5258265 1
vt 0.5092975 1
vt 0.4917355 0.9695817
vt 0.5082645 0.9695817
vt 0.5082645 1
vt 0.4917355 1
vt 0.5444215 0.9695817
vt 0.5609504 0.9695817
vt 0.5609504 1
vt 0.5444215 1
vt 0.5092975 0.8403042
vt 0.5258265 0.8403042
vt 0.5258265 0.8707224
vt 0.5092975 0.8707224
vt 0.4917355 0.8403042
vt 0.5082645 0.8403042
vt 0.5082645 0.8707224
vt 0.4917355 0.8707224
vt 0.3863636 0.904943
vt 0.4028926 0.904943
vt 0.4028926 0.9353612
vt 0.3863636 0.9353612
vt 0.4039256 0.8403042
vt 0.4204545 0.8403042
vt 0.4204545 0.8707224
vt 0.4039256 0.8707224
vt 0.3688017 0.904943
vt 0.3853306 0.904943
vt 0.3853306 0.9353612
vt 0.3688017 0.9353612

# Normal
vn 0 0 -1

# Mesh description
g room_mesh_0002

# Faces
f 1/1/1 2/2/1 3/3/1 4/4/1
f 5/5/1 6/6/1 7/7/1 8/8/1
f 9/9/1 10/10/1 11/11/1 12/12/1
f 13/13/1 14/14/1 15/15/1 16/16/1
f 17/17/1 18/18/1 19/19/1 20/20/1
f 21/13/1 22/14/1 23/15/1 24/16/1
f 25/21/1 26/22/1 27/23/1 28/24/1
f 29/25/1 30/26/1 31/27/1 32/28/1
f 33/29/1 34/30/1 35/31/1 36/32/1
f 37/33/1 38/34/1 39/35/1 40/36/1
f 41/37/1 42/38/1 43/39/1 44/40/1
f 45/41/1 46/42/1 47/43/1 48/44/1

