# Tiled2Unity generated file. Do not modify by hand.
# Wavefront file for 'map2_mesh_0007.obj'

# Vertices (Count = 184)
v -496 -128 0
v -512 -128 0
v -512 -112 0
v -496 -112 0
v -480 -128 0
v -496 -128 0
v -496 -112 0
v -480 -112 0
v -96 -128 0
v -112 -128 0
v -112 -112 0
v -96 -112 0
v -80 -128 0
v -96 -128 0
v -96 -112 0
v -80 -112 0
v -512 -144 0
v -528 -144 0
v -528 -128 0
v -512 -128 0
v -496 -144 0
v -512 -144 0
v -512 -128 0
v -496 -128 0
v -480 -144 0
v -496 -144 0
v -496 -128 0
v -480 -128 0
v -464 -144 0
v -480 -144 0
v -480 -128 0
v -464 -128 0
v -112 -144 0
v -128 -144 0
v -128 -128 0
v -112 -128 0
v -96 -144 0
v -112 -144 0
v -112 -128 0
v -96 -128 0
v -80 -144 0
v -96 -144 0
v -96 -128 0
v -80 -128 0
v -64 -144 0
v -80 -144 0
v -80 -128 0
v -64 -128 0
v -512 -160 0
v -528 -160 0
v -528 -144 0
v -512 -144 0
v -496 -160 0
v -512 -160 0
v -512 -144 0
v -496 -144 0
v -112 -160 0
v -128 -160 0
v -128 -144 0
v -112 -144 0
v -96 -160 0
v -112 -160 0
v -112 -144 0
v -96 -144 0
v -80 -160 0
v -96 -160 0
v -96 -144 0
v -80 -144 0
v -64 -160 0
v -80 -160 0
v -80 -144 0
v -64 -144 0
v -512 -176 0
v -528 -176 0
v -528 -160 0
v -512 -160 0
v -112 -176 0
v -128 -176 0
v -128 -160 0
v -112 -160 0
v -64 -176 0
v -80 -176 0
v -80 -160 0
v -64 -160 0
v -128 -464 0
v -144 -464 0
v -144 -448 0
v -128 -448 0
v -112 -464 0
v -128 -464 0
v -128 -448 0
v -112 -448 0
v -144 -480 0
v -160 -480 0
v -160 -464 0
v -144 -464 0
v -128 -480 0
v -144 -480 0
v -144 -464 0
v -128 -464 0
v -112 -480 0
v -128 -480 0
v -128 -464 0
v -112 -464 0
v -96 -480 0
v -112 -480 0
v -112 -464 0
v -96 -464 0
v -624 -496 0
v -640 -496 0
v -640 -480 0
v -624 -480 0
v -608 -496 0
v -624 -496 0
v -624 -480 0
v -608 -480 0
v -144 -496 0
v -160 -496 0
v -160 -480 0
v -144 -480 0
v -128 -496 0
v -144 -496 0
v -144 -480 0
v -128 -480 0
v -112 -496 0
v -128 -496 0
v -128 -480 0
v -112 -480 0
v -96 -496 0
v -112 -496 0
v -112 -480 0
v -96 -480 0
v -640 -512 0
v -656 -512 0
v -656 -496 0
v -640 -496 0
v -624 -512 0
v -640 -512 0
v -640 -496 0
v -624 -496 0
v -608 -512 0
v -624 -512 0
v -624 -496 0
v -608 -496 0
v -592 -512 0
v -608 -512 0
v -608 -496 0
v -592 -496 0
v -144 -512 0
v -160 -512 0
v -160 -496 0
v -144 -496 0
v -96 -512 0
v -112 -512 0
v -112 -496 0
v -96 -496 0
v -640 -528 0
v -656 -528 0
v -656 -512 0
v -640 -512 0
v -624 -528 0
v -640 -528 0
v -640 -512 0
v -624 -512 0
v -608 -528 0
v -624 -528 0
v -624 -512 0
v -608 -512 0
v -592 -528 0
v -608 -528 0
v -608 -512 0
v -592 -512 0
v -640 -544 0
v -656 -544 0
v -656 -528 0
v -640 -528 0
v -624 -544 0
v -640 -544 0
v -640 -528 0
v -624 -528 0
v -592 -544 0
v -608 -544 0
v -608 -528 0
v -592 -528 0

# Texture cooridinates (Count = 72)
vt 0.3688017 0.2908745
vt 0.3853306 0.2908745
vt 0.3853306 0.3212928
vt 0.3688017 0.3212928
vt 0.3512397 0.2908745
vt 0.3677686 0.2908745
vt 0.3677686 0.3212928
vt 0.3512397 0.3212928
vt 0.6146694 0.2908745
vt 0.6311983 0.2908745
vt 0.6311983 0.3212928
vt 0.6146694 0.3212928
vt 0.5971074 0.2908745
vt 0.6136364 0.2908745
vt 0.6136364 0.3212928
vt 0.5971074 0.3212928
vt 0.3688017 0.2585551
vt 0.3853306 0.2585551
vt 0.3853306 0.2889734
vt 0.3688017 0.2889734
vt 0.3512397 0.2585551
vt 0.3677686 0.2585551
vt 0.3677686 0.2889734
vt 0.3512397 0.2889734
vt 0.6146694 0.2585551
vt 0.6311983 0.2585551
vt 0.6311983 0.2889734
vt 0.6146694 0.2889734
vt 0.5971074 0.2585551
vt 0.6136364 0.2585551
vt 0.6136364 0.2889734
vt 0.5971074 0.2889734
vt 0.3688017 0.2262357
vt 0.3853306 0.2262357
vt 0.3853306 0.256654
vt 0.3688017 0.256654
vt 0.6146694 0.2262357
vt 0.6311983 0.2262357
vt 0.6311983 0.256654
vt 0.6146694 0.256654
vt 0.5971074 0.2262357
vt 0.6136364 0.2262357
vt 0.6136364 0.256654
vt 0.5971074 0.256654
vt 0.4917355 0.2908745
vt 0.5082645 0.2908745
vt 0.5082645 0.3212928
vt 0.4917355 0.3212928
vt 0.4741735 0.2908745
vt 0.4907025 0.2908745
vt 0.4907025 0.3212928
vt 0.4741735 0.3212928
vt 0.4917355 0.2585551
vt 0.5082645 0.2585551
vt 0.5082645 0.2889734
vt 0.4917355 0.2889734
vt 0.4741735 0.2585551
vt 0.4907025 0.2585551
vt 0.4907025 0.2889734
vt 0.4741735 0.2889734
vt 0.4917355 0.2262357
vt 0.5082645 0.2262357
vt 0.5082645 0.256654
vt 0.4917355 0.256654
vt 0.4741735 0.2262357
vt 0.4907025 0.2262357
vt 0.4907025 0.256654
vt 0.4741735 0.256654
vt 0.5619835 0.2585551
vt 0.5785124 0.2585551
vt 0.5785124 0.2889734
vt 0.5619835 0.2889734

# Normal
vn 0 0 -1

# Mesh description
g map2_mesh_0007

# Faces
f 1/1/1 2/2/1 3/3/1 4/4/1
f 5/5/1 6/6/1 7/7/1 8/8/1
f 9/9/1 10/10/1 11/11/1 12/12/1
f 13/13/1 14/14/1 15/15/1 16/16/1
f 17/1/1 18/2/1 19/3/1 20/4/1
f 21/17/1 22/18/1 23/19/1 24/20/1
f 25/21/1 26/22/1 27/23/1 28/24/1
f 29/5/1 30/6/1 31/7/1 32/8/1
f 33/9/1 34/10/1 35/11/1 36/12/1
f 37/25/1 38/26/1 39/27/1 40/28/1
f 41/29/1 42/30/1 43/31/1 44/32/1
f 45/13/1 46/14/1 47/15/1 48/16/1
f 49/17/1 50/18/1 51/19/1 52/20/1
f 53/33/1 54/34/1 55/35/1 56/36/1
f 57/25/1 58/26/1 59/27/1 60/28/1
f 61/37/1 62/38/1 63/39/1 64/40/1
f 65/41/1 66/42/1 67/43/1 68/44/1
f 69/29/1 70/30/1 71/31/1 72/32/1
f 73/33/1 74/34/1 75/35/1 76/36/1
f 77/37/1 78/38/1 79/39/1 80/40/1
f 81/41/1 82/42/1 83/43/1 84/44/1
f 85/9/1 86/10/1 87/11/1 88/12/1
f 89/13/1 90/14/1 91/15/1 92/16/1
f 93/9/1 94/10/1 95/11/1 96/12/1
f 97/25/1 98/26/1 99/27/1 100/28/1
f 101/29/1 102/30/1 103/31/1 104/32/1
f 105/13/1 106/14/1 107/15/1 108/16/1
f 109/45/1 110/46/1 111/47/1 112/48/1
f 113/49/1 114/50/1 115/51/1 116/52/1
f 117/25/1 118/26/1 119/27/1 120/28/1
f 121/37/1 122/38/1 123/39/1 124/40/1
f 125/41/1 126/42/1 127/43/1 128/44/1
f 129/29/1 130/30/1 131/31/1 132/32/1
f 133/45/1 134/46/1 135/47/1 136/48/1
f 137/53/1 138/54/1 139/55/1 140/56/1
f 141/57/1 142/58/1 143/59/1 144/60/1
f 145/49/1 146/50/1 147/51/1 148/52/1
f 149/37/1 150/38/1 151/39/1 152/40/1
f 153/41/1 154/42/1 155/43/1 156/44/1
f 157/53/1 158/54/1 159/55/1 160/56/1
f 161/61/1 162/62/1 163/63/1 164/64/1
f 165/65/1 166/66/1 167/67/1 168/68/1
f 169/57/1 170/58/1 171/59/1 172/60/1
f 173/61/1 174/62/1 175/63/1 176/64/1
f 177/69/1 178/70/1 179/71/1 180/72/1
f 181/65/1 182/66/1 183/67/1 184/68/1

