# Tiled2Unity generated file. Do not modify by hand.
# Wavefront file for 'map2_mesh_0004.obj'

# Vertices (Count = 260)
v -320 -48 0
v -336 -48 0
v -336 -32 0
v -320 -32 0
v -336 -64 0
v -352 -64 0
v -352 -48 0
v -336 -48 0
v -320 -64 0
v -336 -64 0
v -336 -48 0
v -320 -48 0
v -480 -80 0
v -496 -80 0
v -496 -64 0
v -480 -64 0
v -480 -96 0
v -496 -96 0
v -496 -80 0
v -480 -80 0
v -496 -144 0
v -512 -144 0
v -512 -128 0
v -496 -128 0
v -496 -160 0
v -512 -160 0
v -512 -144 0
v -496 -144 0
v -480 -160 0
v -496 -160 0
v -496 -144 0
v -480 -144 0
v -96 -160 0
v -112 -160 0
v -112 -144 0
v -96 -144 0
v -80 -160 0
v -96 -160 0
v -96 -144 0
v -80 -144 0
v -512 -176 0
v -528 -176 0
v -528 -160 0
v -512 -160 0
v -496 -176 0
v -512 -176 0
v -512 -160 0
v -496 -160 0
v -480 -176 0
v -496 -176 0
v -496 -160 0
v -480 -160 0
v -464 -176 0
v -480 -176 0
v -480 -160 0
v -464 -160 0
v -112 -176 0
v -128 -176 0
v -128 -160 0
v -112 -160 0
v -96 -176 0
v -112 -176 0
v -112 -160 0
v -96 -160 0
v -80 -176 0
v -96 -176 0
v -96 -160 0
v -80 -160 0
v -64 -176 0
v -80 -176 0
v -80 -160 0
v -64 -160 0
v -576 -192 0
v -592 -192 0
v -592 -176 0
v -576 -176 0
v -112 -192 0
v -128 -192 0
v -128 -176 0
v -112 -176 0
v -96 -192 0
v -112 -192 0
v -112 -176 0
v -96 -176 0
v -80 -192 0
v -96 -192 0
v -96 -176 0
v -80 -176 0
v -64 -192 0
v -80 -192 0
v -80 -176 0
v -64 -176 0
v -576 -208 0
v -592 -208 0
v -592 -192 0
v -576 -192 0
v -480 -208 0
v -496 -208 0
v -496 -192 0
v -480 -192 0
v -112 -208 0
v -128 -208 0
v -128 -192 0
v -112 -192 0
v -96 -208 0
v -112 -208 0
v -112 -192 0
v -96 -192 0
v -80 -208 0
v -96 -208 0
v -96 -192 0
v -80 -192 0
v -64 -208 0
v -80 -208 0
v -80 -192 0
v -64 -192 0
v -448 -240 0
v -464 -240 0
v -464 -224 0
v -448 -224 0
v -208 -240 0
v -224 -240 0
v -224 -224 0
v -208 -224 0
v -208 -256 0
v -224 -256 0
v -224 -240 0
v -208 -240 0
v -304 -400 0
v -320 -400 0
v -320 -384 0
v -304 -384 0
v -208 -464 0
v -224 -464 0
v -224 -448 0
v -208 -448 0
v -128 -496 0
v -144 -496 0
v -144 -480 0
v -128 -480 0
v -112 -496 0
v -128 -496 0
v -128 -480 0
v -112 -480 0
v -432 -512 0
v -448 -512 0
v -448 -496 0
v -432 -496 0
v -144 -512 0
v -160 -512 0
v -160 -496 0
v -144 -496 0
v -128 -512 0
v -144 -512 0
v -144 -496 0
v -128 -496 0
v -112 -512 0
v -128 -512 0
v -128 -496 0
v -112 -496 0
v -96 -512 0
v -112 -512 0
v -112 -496 0
v -96 -496 0
v -624 -528 0
v -640 -528 0
v -640 -512 0
v -624 -512 0
v -608 -528 0
v -624 -528 0
v -624 -512 0
v -608 -512 0
v -304 -528 0
v -320 -528 0
v -320 -512 0
v -304 -512 0
v -144 -528 0
v -160 -528 0
v -160 -512 0
v -144 -512 0
v -128 -528 0
v -144 -528 0
v -144 -512 0
v -128 -512 0
v -112 -528 0
v -128 -528 0
v -128 -512 0
v -112 -512 0
v -96 -528 0
v -112 -528 0
v -112 -512 0
v -96 -512 0
v -640 -544 0
v -656 -544 0
v -656 -528 0
v -640 -528 0
v -592 -544 0
v -608 -544 0
v -608 -528 0
v -592 -528 0
v -144 -544 0
v -160 -544 0
v -160 -528 0
v -144 -528 0
v -128 -544 0
v -144 -544 0
v -144 -528 0
v -128 -528 0
v -112 -544 0
v -128 -544 0
v -128 -528 0
v -112 -528 0
v -96 -544 0
v -112 -544 0
v -112 -528 0
v -96 -528 0
v -624 -576 0
v -640 -576 0
v -640 -560 0
v -624 -560 0
v -336 -576 0
v -352 -576 0
v -352 -560 0
v -336 -560 0
v -624 -592 0
v -640 -592 0
v -640 -576 0
v -624 -576 0
v -336 -592 0
v -352 -592 0
v -352 -576 0
v -336 -576 0
v -224 -864 0
v -240 -864 0
v -240 -848 0
v -224 -848 0
v -208 -864 0
v -224 -864 0
v -224 -848 0
v -208 -848 0
v -224 -880 0
v -240 -880 0
v -240 -864 0
v -224 -864 0
v -208 -880 0
v -224 -880 0
v -224 -864 0
v -208 -864 0
v -240 -896 0
v -256 -896 0
v -256 -880 0
v -240 -880 0
v -192 -896 0
v -208 -896 0
v -208 -880 0
v -192 -880 0
v -224 -928 0
v -240 -928 0
v -240 -912 0
v -224 -912 0

# Texture cooridinates (Count = 112)
vt 0.1404959 0.6463878
vt 0.1570248 0.6463878
vt 0.1570248 0.6768061
vt 0.1404959 0.6768061
vt 0.1053719 0.6787072
vt 0.1219008 0.6787072
vt 0.1219008 0.7091255
vt 0.1053719 0.7091255
vt 0.08780992 0.9695817
vt 0.1043388 0.9695817
vt 0.1043388 1
vt 0.08780992 1
vt 0.7024794 0.3555133
vt 0.7190083 0.3555133
vt 0.7190083 0.3859316
vt 0.7024794 0.3859316
vt 0.6849173 0.2585551
vt 0.7014463 0.2585551
vt 0.7014463 0.2889734
vt 0.6849173 0.2889734
vt 0.1229339 0.1292776
vt 0.1394628 0.1292776
vt 0.1394628 0.1596958
vt 0.1229339 0.1596958
vt 0.2985537 0.3555133
vt 0.3150826 0.3555133
vt 0.3150826 0.3859316
vt 0.2985537 0.3859316
vt 0.1404959 0.1292776
vt 0.1570248 0.1292776
vt 0.1570248 0.1596958
vt 0.1404959 0.1596958
vt 0.3336777 0.3231939
vt 0.3502066 0.3231939
vt 0.3502066 0.3536122
vt 0.3336777 0.3536122
vt 0.1053719 0.1292776
vt 0.1219008 0.1292776
vt 0.1219008 0.1596958
vt 0.1053719 0.1596958
vt 0.6849173 0.2262357
vt 0.7014463 0.2262357
vt 0.7014463 0.256654
vt 0.6849173 0.256654
vt 0.2985537 0.3231939
vt 0.3150826 0.3231939
vt 0.3150826 0.3536122
vt 0.2985537 0.3536122
vt 0.1229339 0.09695816
vt 0.1394628 0.09695816
vt 0.1394628 0.1273764
vt 0.1229339 0.1273764
vt 0.05268595 0.9372624
vt 0.06921487 0.9372624
vt 0.06921487 0.9676806
vt 0.05268595 0.9676806
vt 0.3161157 0.2585551
vt 0.3326446 0.2585551
vt 0.3326446 0.2889734
vt 0.3161157 0.2889734
vt 0.2809917 0.3555133
vt 0.2975207 0.3555133
vt 0.2975207 0.3859316
vt 0.2809917 0.3859316
vt 0.3336777 0.2908745
vt 0.3502066 0.2908745
vt 0.3502066 0.3212928
vt 0.3336777 0.3212928
vt 0.2985537 0.2908745
vt 0.3150826 0.2908745
vt 0.3150826 0.3212928
vt 0.2985537 0.3212928
vt 0.5619835 0.2585551
vt 0.5785124 0.2585551
vt 0.5785124 0.2889734
vt 0.5619835 0.2889734
vt 0.1053719 0.6463878
vt 0.1219008 0.6463878
vt 0.1219008 0.6768061
vt 0.1053719 0.6768061
vt 0.3336777 0.2585551
vt 0.3502066 0.2585551
vt 0.3502066 0.2889734
vt 0.3336777 0.2889734
vt 0.2985537 0.2585551
vt 0.3150826 0.2585551
vt 0.3150826 0.2889734
vt 0.2985537 0.2889734
vt 0.3336777 0.2262357
vt 0.3502066 0.2262357
vt 0.3502066 0.256654
vt 0.3336777 0.256654
vt 0.3161157 0.2262357
vt 0.3326446 0.2262357
vt 0.3326446 0.256654
vt 0.3161157 0.256654
vt 0.2985537 0.2262357
vt 0.3150826 0.2262357
vt 0.3150826 0.256654
vt 0.2985537 0.256654
vt 0.5619835 0.2262357
vt 0.5785124 0.2262357
vt 0.5785124 0.256654
vt 0.5619835 0.256654
vt 0.1404959 0.6140684
vt 0.1570248 0.6140684
vt 0.1570248 0.6444867
vt 0.1404959 0.6444867
vt 0.1229339 0.6140684
vt 0.1394628 0.6140684
vt 0.1394628 0.6444867
vt 0.1229339 0.6444867

# Normal
vn 0 0 -1

# Mesh description
g map2_mesh_0004

# Faces
f 1/1/1 2/2/1 3/3/1 4/4/1
f 5/1/1 6/2/1 7/3/1 8/4/1
f 9/5/1 10/6/1 11/7/1 12/8/1
f 13/9/1 14/10/1 15/11/1 16/12/1
f 17/9/1 18/10/1 19/11/1 20/12/1
f 21/13/1 22/14/1 23/15/1 24/16/1
f 25/17/1 26/18/1 27/19/1 28/20/1
f 29/17/1 30/18/1 31/19/1 32/20/1
f 33/21/1 34/22/1 35/23/1 36/24/1
f 37/25/1 38/26/1 39/27/1 40/28/1
f 41/17/1 42/18/1 43/19/1 44/20/1
f 45/17/1 46/18/1 47/19/1 48/20/1
f 49/17/1 50/18/1 51/19/1 52/20/1
f 53/17/1 54/18/1 55/19/1 56/20/1
f 57/21/1 58/22/1 59/23/1 60/24/1
f 61/21/1 62/22/1 63/23/1 64/24/1
f 65/21/1 66/22/1 67/23/1 68/24/1
f 69/21/1 70/22/1 71/23/1 72/24/1
f 73/9/1 74/10/1 75/11/1 76/12/1
f 77/29/1 78/30/1 79/31/1 80/32/1
f 81/33/1 82/34/1 83/35/1 84/36/1
f 85/21/1 86/22/1 87/23/1 88/24/1
f 89/37/1 90/38/1 91/39/1 92/40/1
f 93/9/1 94/10/1 95/11/1 96/12/1
f 97/41/1 98/42/1 99/43/1 100/44/1
f 101/45/1 102/46/1 103/47/1 104/48/1
f 105/49/1 106/50/1 107/51/1 108/52/1
f 109/49/1 110/50/1 111/51/1 112/52/1
f 113/45/1 114/46/1 115/47/1 116/48/1
f 117/9/1 118/10/1 119/11/1 120/12/1
f 121/9/1 122/10/1 123/11/1 124/12/1
f 125/9/1 126/10/1 127/11/1 128/12/1
f 129/53/1 130/54/1 131/55/1 132/56/1
f 133/9/1 134/10/1 135/11/1 136/12/1
f 137/57/1 138/58/1 139/59/1 140/60/1
f 141/61/1 142/62/1 143/63/1 144/64/1
f 145/9/1 146/10/1 147/11/1 148/12/1
f 149/65/1 150/66/1 151/67/1 152/68/1
f 153/57/1 154/58/1 155/59/1 156/60/1
f 157/57/1 158/58/1 159/59/1 160/60/1
f 161/69/1 162/70/1 163/71/1 164/72/1
f 165/73/1 166/74/1 167/75/1 168/76/1
f 169/73/1 170/74/1 171/75/1 172/76/1
f 173/77/1 174/78/1 175/79/1 176/80/1
f 177/81/1 178/82/1 179/83/1 180/84/1
f 181/57/1 182/58/1 183/59/1 184/60/1
f 185/57/1 186/58/1 187/59/1 188/60/1
f 189/85/1 190/86/1 191/87/1 192/88/1
f 193/73/1 194/74/1 195/75/1 196/76/1
f 197/73/1 198/74/1 199/75/1 200/76/1
f 201/89/1 202/90/1 203/91/1 204/92/1
f 205/93/1 206/94/1 207/95/1 208/96/1
f 209/93/1 210/94/1 211/95/1 212/96/1
f 213/97/1 214/98/1 215/99/1 216/100/1
f 217/101/1 218/102/1 219/103/1 220/104/1
f 221/9/1 222/10/1 223/11/1 224/12/1
f 225/9/1 226/10/1 227/11/1 228/12/1
f 229/9/1 230/10/1 231/11/1 232/12/1
f 233/105/1 234/106/1 235/107/1 236/108/1
f 237/109/1 238/110/1 239/111/1 240/112/1
f 241/73/1 242/74/1 243/75/1 244/76/1
f 245/73/1 246/74/1 247/75/1 248/76/1
f 249/73/1 250/74/1 251/75/1 252/76/1
f 253/73/1 254/74/1 255/75/1 256/76/1
f 257/73/1 258/74/1 259/75/1 260/76/1

