# Tiled2Unity generated file. Do not modify by hand.
# Wavefront file for 'map2_mesh_0002.obj'

# Vertices (Count = 140)
v -368 -336 0
v -384 -336 0
v -384 -320 0
v -368 -320 0
v -352 -336 0
v -368 -336 0
v -368 -320 0
v -352 -320 0
v -336 -336 0
v -352 -336 0
v -352 -320 0
v -336 -320 0
v -320 -336 0
v -336 -336 0
v -336 -320 0
v -320 -320 0
v -304 -336 0
v -320 -336 0
v -320 -320 0
v -304 -320 0
v -288 -336 0
v -304 -336 0
v -304 -320 0
v -288 -320 0
v -368 -352 0
v -384 -352 0
v -384 -336 0
v -368 -336 0
v -352 -352 0
v -368 -352 0
v -368 -336 0
v -352 -336 0
v -336 -352 0
v -352 -352 0
v -352 -336 0
v -336 -336 0
v -320 -352 0
v -336 -352 0
v -336 -336 0
v -320 -336 0
v -304 -352 0
v -320 -352 0
v -320 -336 0
v -304 -336 0
v -288 -352 0
v -304 -352 0
v -304 -336 0
v -288 -336 0
v -368 -368 0
v -384 -368 0
v -384 -352 0
v -368 -352 0
v -352 -368 0
v -368 -368 0
v -368 -352 0
v -352 -352 0
v -336 -368 0
v -352 -368 0
v -352 -352 0
v -336 -352 0
v -320 -368 0
v -336 -368 0
v -336 -352 0
v -320 -352 0
v -304 -368 0
v -320 -368 0
v -320 -352 0
v -304 -352 0
v -288 -368 0
v -304 -368 0
v -304 -352 0
v -288 -352 0
v -368 -384 0
v -384 -384 0
v -384 -368 0
v -368 -368 0
v -352 -384 0
v -368 -384 0
v -368 -368 0
v -352 -368 0
v -336 -384 0
v -352 -384 0
v -352 -368 0
v -336 -368 0
v -320 -384 0
v -336 -384 0
v -336 -368 0
v -320 -368 0
v -304 -384 0
v -320 -384 0
v -320 -368 0
v -304 -368 0
v -288 -384 0
v -304 -384 0
v -304 -368 0
v -288 -368 0
v -368 -400 0
v -384 -400 0
v -384 -384 0
v -368 -384 0
v -352 -400 0
v -368 -400 0
v -368 -384 0
v -352 -384 0
v -336 -400 0
v -352 -400 0
v -352 -384 0
v -336 -384 0
v -320 -400 0
v -336 -400 0
v -336 -384 0
v -320 -384 0
v -288 -400 0
v -304 -400 0
v -304 -384 0
v -288 -384 0
v -368 -416 0
v -384 -416 0
v -384 -400 0
v -368 -400 0
v -352 -416 0
v -368 -416 0
v -368 -400 0
v -352 -400 0
v -336 -416 0
v -352 -416 0
v -352 -400 0
v -336 -400 0
v -320 -416 0
v -336 -416 0
v -336 -400 0
v -320 -400 0
v -304 -416 0
v -320 -416 0
v -320 -400 0
v -304 -400 0
v -288 -416 0
v -304 -416 0
v -304 -400 0
v -288 -400 0

# Texture cooridinates (Count = 36)
vt 0.07024793 0.9695817
vt 0.08677686 0.9695817
vt 0.08677686 1
vt 0.07024793 1
vt 0.05268595 0.9695817
vt 0.06921487 0.9695817
vt 0.06921487 1
vt 0.05268595 1
vt 0.03512397 0.9695817
vt 0.05165289 0.9695817
vt 0.05165289 1
vt 0.03512397 1
vt 0.07024793 0.9372624
vt 0.08677686 0.9372624
vt 0.08677686 0.9676806
vt 0.07024793 0.9676806
vt 0.05268595 0.9372624
vt 0.06921487 0.9372624
vt 0.06921487 0.9676806
vt 0.05268595 0.9676806
vt 0.03512397 0.9372624
vt 0.05165289 0.9372624
vt 0.05165289 0.9676806
vt 0.03512397 0.9676806
vt 0.07024793 0.904943
vt 0.08677686 0.904943
vt 0.08677686 0.9353612
vt 0.07024793 0.9353612
vt 0.05268595 0.904943
vt 0.06921487 0.904943
vt 0.06921487 0.9353612
vt 0.05268595 0.9353612
vt 0.03512397 0.904943
vt 0.05165289 0.904943
vt 0.05165289 0.9353612
vt 0.03512397 0.9353612

# Normal
vn 0 0 -1

# Mesh description
g map2_mesh_0002

# Faces
f 1/1/1 2/2/1 3/3/1 4/4/1
f 5/5/1 6/6/1 7/7/1 8/8/1
f 9/5/1 10/6/1 11/7/1 12/8/1
f 13/5/1 14/6/1 15/7/1 16/8/1
f 17/5/1 18/6/1 19/7/1 20/8/1
f 21/9/1 22/10/1 23/11/1 24/12/1
f 25/13/1 26/14/1 27/15/1 28/16/1
f 29/17/1 30/18/1 31/19/1 32/20/1
f 33/17/1 34/18/1 35/19/1 36/20/1
f 37/17/1 38/18/1 39/19/1 40/20/1
f 41/17/1 42/18/1 43/19/1 44/20/1
f 45/21/1 46/22/1 47/23/1 48/24/1
f 49/13/1 50/14/1 51/15/1 52/16/1
f 53/17/1 54/18/1 55/19/1 56/20/1
f 57/17/1 58/18/1 59/19/1 60/20/1
f 61/17/1 62/18/1 63/19/1 64/20/1
f 65/17/1 66/18/1 67/19/1 68/20/1
f 69/21/1 70/22/1 71/23/1 72/24/1
f 73/13/1 74/14/1 75/15/1 76/16/1
f 77/17/1 78/18/1 79/19/1 80/20/1
f 81/17/1 82/18/1 83/19/1 84/20/1
f 85/17/1 86/18/1 87/19/1 88/20/1
f 89/17/1 90/18/1 91/19/1 92/20/1
f 93/21/1 94/22/1 95/23/1 96/24/1
f 97/13/1 98/14/1 99/15/1 100/16/1
f 101/17/1 102/18/1 103/19/1 104/20/1
f 105/17/1 106/18/1 107/19/1 108/20/1
f 109/17/1 110/18/1 111/19/1 112/20/1
f 113/21/1 114/22/1 115/23/1 116/24/1
f 117/25/1 118/26/1 119/27/1 120/28/1
f 121/29/1 122/30/1 123/31/1 124/32/1
f 125/29/1 126/30/1 127/31/1 128/32/1
f 129/29/1 130/30/1 131/31/1 132/32/1
f 133/29/1 134/30/1 135/31/1 136/32/1
f 137/33/1 138/34/1 139/35/1 140/36/1

